<svg width="400" height="400" viewBox="0 0 400 400" fill="none" xmlns="http://www.w3.org/2000/svg">
  <path
    d="M92 298V180c0-38.6599 31.3401-70 70-70 38.6599 0 70 31.3401 70 70v98c0 10.4934 8.5066 19 19 19s19-8.5066 19-19V180c0-38.6599 31.3401-70 70-70 38.6599 0 70 31.3401 70 70v118h-62V186c0-10.4934-8.5066-19-19-19s-19 8.5066-19 19v92c0 49.7056-40.2944 90-90 90s-90-40.2944-90-90V186c0-10.4934-8.5066-19-19-19s-19 8.5066-19 19v112H92Z"
    fill="#202020"
  />
  <circle cx="321" cy="292" r="29" fill="#0EA376"/>
  <rect x="86" y="320" width="232" height="7" rx="3.5" fill="#0EA376"/>
</svg>
